<svg width="449" height="544" viewBox="0 0 449 544" fill="none" xmlns="http://www.w3.org/2000/svg">
<g clip-path="url(#clip0_1_30)">
<path d="M19.1045 0.15625L190.649 13.9047L183.327 175.127L424.642 402.053C424.642 402.053 424.642 410.837 426.564 413.112C428.486 415.387 433.131 418.455 434.253 420.731C435.427 423.005 434.252 429.144 436.174 431.418C438.096 433.694 448.667 439.037 448.667 439.037C448.667 439.037 445.036 444.011 443.114 445.916C441.192 447.821 433.877 451.631 432.328 455.07C430.78 458.51 430.405 467.293 431.153 470.732C431.9 474.171 432.701 479.515 431.153 481.05C429.604 482.584 426.507 486.394 424.959 487.559C423.41 488.723 421.862 488.723 422.236 490.628C422.609 492.533 426.08 494.807 426.079 497.506C426.079 500.205 423.784 504.014 423.783 507.453C423.783 510.892 425.705 512.797 429.175 513.168C432.645 513.538 437.665 512.426 436.864 515.866C436.116 519.305 433.019 527.348 430.296 528.83C427.573 530.364 424.102 528.83 424.102 528.83L306.695 543.333C306.695 543.333 305.146 534.233 303.225 531.534C301.303 528.836 300.128 526.561 300.502 523.915C300.876 521.216 296.285 508.624 293.936 504.074C291.587 499.523 279.308 490.688 276.959 488.412C274.663 486.138 247.648 473.122 247.648 473.122C247.648 473.122 245.9 470.732 243.416 467.302C240.931 463.872 242.344 462.011 239.322 460.407C236.299 458.803 231.845 458.996 231.845 458.996C231.845 458.996 224.156 455.927 221.807 455.187C219.458 454.446 211.396 452.912 210.222 451.007C209.047 449.102 202.107 438.044 194.792 436.51C187.478 434.976 184.007 434.606 181.284 434.976C178.562 435.347 175.892 434.236 172.795 432.702C169.698 431.168 159.288 430.798 155.443 431.539L151.599 432.28L143.912 421.222L147.009 417.041L143.538 412.438L147.009 408.258L142.791 403.655L147.009 399.845L144.287 393.707C144.287 393.707 145.835 392.173 145.462 390.268C145.088 388.363 141.244 387.199 139.695 387.57C138.147 387.94 134.303 383.76 133.929 381.062C133.556 378.363 137.026 379.157 137.4 377.623C137.774 376.088 134.677 371.485 132.008 370.744C129.285 370.004 127.79 371.485 124.693 365.771C121.597 360.057 124.32 358.522 120.85 358.152C117.379 357.782 117.005 357.411 115.084 353.178C113.162 348.999 110.065 349.369 108.517 344.766C106.969 340.163 111.614 340.956 109.692 339.051C107.77 337.146 101.577 331.009 99.2812 329.104C96.9854 327.199 91.1663 320.692 91.1663 320.692L89.9925 303.125C89.9925 303.125 92.7152 304.659 95.011 301.59L97.3068 298.522C97.3068 298.522 100.404 297.357 99.2294 294.341C98.0552 291.326 94.5846 288.627 94.5846 288.627C94.5846 288.627 95.7594 287.463 94.2114 285.558C92.663 283.653 85.7218 284.395 85.7218 284.395L71.841 270.956C71.841 270.956 70.6662 271.009 71.841 264.712C73.0163 258.416 76.0594 257.622 74.5647 255.346C73.07 253.072 69.5462 249.209 68.7988 245.4C68.0515 241.59 68.0519 237.78 70.7214 238.151C73.4446 238.521 76.4873 245.399 79.5842 246.934C82.6806 248.467 81.88 248.467 85.777 251.113C89.6213 253.812 84.6027 250.372 81.9333 244.605C79.2105 238.891 77.2889 236.563 78.4637 233.124C79.6384 229.684 81.1864 228.52 81.9342 226.615C82.6816 224.71 81.5606 222.435 78.8373 224.34C76.1146 226.245 76.1146 228.15 75.3668 230.848C74.6194 233.547 73.4446 236.193 71.5225 236.193C69.6004 236.193 64.2082 230.055 61.4855 228.944C58.7623 227.78 56.8401 222.807 54.5443 222.807C52.2485 222.807 49.5263 222.067 49.5263 222.067L53.7442 214.818C53.7442 214.818 51.0215 209.844 49.5268 208.309C47.9783 206.775 46.0567 205.611 45.6825 202.172C45.3093 198.733 45.3093 196.828 45.3093 196.828C45.3093 196.828 37.6208 194.923 35.646 190.32C33.6706 185.717 33.7243 183.442 30.6279 180.003C27.531 176.564 24.061 175.823 22.5125 171.59C20.9646 167.41 24.0614 160.902 22.5135 157.092C20.965 153.282 18.6692 152.489 19.0434 147.516C19.4176 142.541 24.4361 136.827 23.6892 133.388C22.9419 129.949 15.5748 115.028 15.2011 113.917C14.8274 112.805 15.2011 107.779 15.2011 107.779C15.2011 107.779 0.252502 97.1974 0.252502 94.4986C0.252502 91.8003 1.80095 90.3188 2.54831 88.361C3.29615 86.456 0.252991 84.5509 0.252991 84.5509C0.252991 84.5509 5.64617 69.2594 7.5683 67.7251C9.49042 66.1904 11.7862 68.8892 12.961 66.1904L14.1358 63.4916L12.2136 62.7511C12.2136 62.7511 16.0579 55.5022 16.859 53.1737C17.6601 50.8456 13.3889 47.8298 14.5637 44.7613C15.7384 41.6922 19.9564 37.5119 21.1316 31.0035C22.3064 24.4957 18.4094 14.1777 16.4877 12.6435C14.5656 11.1092 15.313 7.29962 15.313 7.29962L19.1045 0.15625Z" fill="#222222"/>
</g>
<defs>
<clipPath id="clip0_1_30">
<rect width="448.414" height="543.177" fill="white" transform="translate(0.252502 0.15625)"/>
</clipPath>
</defs>
</svg>
