<svg width="44" height="25" viewBox="0 0 44 25" fill="none" xmlns="http://www.w3.org/2000/svg">
<g id="bear.svg" clip-path="url(#clip0_1_12)">
<g id="4">
<g id="CC-v4">
<path id="Bear-Icon" fill-rule="evenodd" clip-rule="evenodd" d="M0.871805 12.512C1.36606 12.0849 1.83422 11.6086 2.22823 11.0863C2.69047 10.4736 2.7718 9.96496 2.93852 9.23794C3.13286 8.39021 3.45297 7.57178 3.88237 6.81601C4.60183 5.55017 5.78725 3.99346 7.01744 3.1867C7.44104 2.90898 7.9701 2.75222 8.45949 2.88096C8.77356 2.9636 9.04669 3.15482 9.34476 3.28426C12.261 4.54998 13.9607 0.414108 16.6822 0.848043C17.248 0.938251 17.7351 1.28174 18.2431 1.54712C19.7279 2.32269 21.47 2.45165 23.1386 2.31884C24.8073 2.18603 26.4476 1.80879 28.1121 1.63093C32.198 1.19444 35.7512 3.13957 38.7693 5.75517C38.901 5.86935 39.0401 6.00054 39.0633 6.17362C39.0866 6.34671 38.9141 6.54414 38.7551 6.4729C39.5966 6.85062 39.768 8.52232 39.7986 9.28264C39.8373 10.2436 39.9149 11.1852 39.8068 12.1435C39.6918 13.1631 39.4767 14.2382 39.8606 15.2286C40.2666 16.2761 41.208 16.9468 42.0432 17.6324C43.0508 18.4592 43.6147 19.1637 43.6833 20.5136C43.72 21.2352 43.7199 21.9583 43.7198 22.6809C43.7198 22.9838 43.7325 23.3139 43.6485 23.6079C43.5181 24.065 43.3948 23.987 42.9874 24.1232C42.6568 24.2339 42.3108 24.4608 40.8669 22.4687C39.4496 20.5136 37.8708 19.7643 36.9886 19.7201C36.1066 19.6758 35.6874 23.2151 35.4888 23.5036C35.0543 24.135 34.8207 24.6092 33.9868 24.6599C33.0123 24.7194 32.0351 24.6988 31.0606 24.6478C30.4316 24.615 29.6155 24.8421 29.0521 24.4626C28.3901 24.0168 29.092 23.5238 29.502 23.2808C30.4725 22.7055 31.6733 22.9948 31.8277 21.9769C31.982 20.9591 31.7615 18.7466 31.4307 18.1492C31.0998 17.5517 30.5925 17.3747 30.1294 17.3969C29.6663 17.4189 27.1961 17.3969 26.2698 16.9986C25.3435 16.6003 24.7039 16.2242 24.351 16.3348C23.9981 16.4453 24.0637 16.9287 24.1919 18.4085C24.331 20.0127 24.1284 21.5749 23.5538 23.0852C23.446 23.3684 23.3186 23.6581 23.0869 23.8526C22.5765 24.2813 21.7399 24.1239 21.1238 24.1122C20.6871 24.1039 20.2501 24.0978 19.8136 24.0842C19.5508 24.0761 19.2748 24.0272 19.0736 23.8574C18.6905 23.5339 18.8575 22.9294 19.2704 22.7285C19.9982 22.3745 21.1971 22.8842 21.2632 21.7115C21.3183 20.735 20.6096 19.6244 20.1523 18.8104C19.5193 17.6837 18.7187 16.6471 17.9798 15.5873C17.8252 15.3657 17.6662 15.1395 17.4457 14.9837C16.3471 14.2079 15.6528 15.7026 15.3415 16.5397C14.97 17.5387 14.7679 18.6049 14.2181 19.5271C13.7048 20.3879 13.0057 21.1279 12.2329 21.7588C10.8683 22.8732 9.15981 24.0457 7.3937 24.332C6.2677 24.5146 4.59534 24.3219 3.77367 23.4152C3.41133 23.0153 5.35634 22.9015 5.55532 22.867C6.61415 22.6834 7.33406 22.0451 7.81115 21.0875C9.10145 18.4968 10.181 15.8359 10.9901 13.0556C11.0224 12.9443 11.0526 12.816 10.9888 12.7194C10.948 12.6575 10.8768 12.6236 10.808 12.5964C10.1466 12.3347 9.31736 12.3763 8.63341 12.5118C7.79177 12.6787 7.33094 13.5212 6.54476 13.8062C5.39335 14.2236 3.08159 14.4643 2.01266 13.7308C1.50529 13.3825 0.34065 12.9707 0.871805 12.512Z" fill="white"/>
</g>
</g>
</g>
<defs>
<clipPath id="clip0_1_12">
<rect width="42.9844" height="23.8802" fill="white" transform="translate(0.736084 0.815979)"/>
</clipPath>
</defs>
</svg>
